<?xml version="1.0" standalone="no"?>
<!DOCTYPE svg PUBLIC "-//W3C//DTD SVG 20010904//EN"
 "http://www.w3.org/TR/2001/REC-SVG-20010904/DTD/svg10.dtd">
<svg version="1.0" xmlns="http://www.w3.org/2000/svg"
 width="512.000000pt" height="512.000000pt" viewBox="0 0 512.000000 512.000000"
 preserveAspectRatio="xMidYMid meet">

<g transform="translate(0.000000,512.000000) scale(0.100000,-0.100000)"
fill="#000000" stroke="none">
<path d="M423 4777 c-237 -236 -263 -266 -263 -295 0 -22 8 -41 25 -57 l24
-25 256 0 255 0 0 -920 0 -920 -55 0 c-46 0 -60 -4 -80 -25 l-25 -24 0 -271 0
-271 25 -24 c23 -24 29 -25 155 -25 130 0 130 0 125 -22 -9 -42 -124 -872
-131 -946 -5 -55 -11 -75 -23 -79 -182 -60 -290 -192 -299 -368 -11 -210 128
-382 336 -414 210 -33 410 111 452 326 23 116 -18 249 -105 342 -47 50 -150
111 -187 111 -16 0 -19 6 -16 43 l3 42 1281 3 1281 2 -9 -52 c-15 -79 -3 -231
25 -320 38 -118 90 -203 181 -293 94 -93 161 -135 283 -178 82 -30 96 -32 223
-31 154 1 232 20 357 89 85 48 214 176 266 265 135 232 126 528 -22 752 -109
165 -298 291 -469 314 l-52 7 0 203 0 204 135 0 c131 0 137 1 160 25 l25 24 0
271 0 271 -25 24 c-20 21 -34 25 -80 25 l-55 0 0 920 0 920 255 0 256 0 24 25
c17 16 25 35 25 57 0 29 -26 59 -263 295 l-262 263 -1875 0 -1875 0 -262 -263z
m617 -1297 l0 -920 -80 0 -80 0 0 920 0 920 80 0 80 0 0 -920z m2880 0 l0
-920 -80 0 -80 0 0 136 c0 163 -10 200 -67 264 -65 72 -97 80 -331 80 -233 0
-258 -6 -327 -75 -66 -65 -75 -99 -75 -269 l0 -136 -80 0 -80 0 0 135 c0 131
-1 137 -25 160 -24 25 -24 25 -240 25 l-215 0 0 375 0 376 -25 24 -24 25 -536
0 -535 0 0 360 0 360 1360 0 1360 0 0 -920z m320 0 l0 -920 -80 0 -80 0 0 920
0 920 80 0 80 0 0 -920z m-2080 -720 l0 -200 -480 0 -480 0 0 200 0 200 480 0
480 0 0 -200z m480 -120 l0 -80 -160 0 -160 0 0 80 0 80 160 0 160 0 0 -80z
m1760 -400 l0 -160 -1840 0 -1840 0 0 160 0 160 1840 0 1840 0 0 -160z m-134
-891 c163 -29 320 -149 393 -302 153 -316 0 -669 -339 -783 -76 -26 -244 -26
-320 0 -187 63 -313 189 -376 376 -14 40 -19 84 -19 160 0 162 51 285 163 397
129 129 314 185 498 152z m-3392 -641 c86 -26 166 -136 166 -228 0 -124 -116
-240 -240 -240 -124 0 -240 116 -240 240 0 63 23 114 75 165 70 71 145 90 239
63z"/>
<path d="M3280 3587 c-49 -16 -133 -102 -148 -153 -28 -94 -8 -169 63 -239
102 -103 243 -101 338 5 90 100 90 220 0 320 -65 72 -158 97 -253 67z"/>
<path d="M4085 1111 c-92 -24 -173 -90 -215 -176 -34 -69 -35 -198 -2 -265 34
-71 75 -114 144 -151 58 -31 70 -34 148 -33 72 0 93 4 136 26 75 40 107 70
145 140 31 58 34 70 34 148 0 78 -3 90 -34 148 -57 104 -144 160 -260 167 -36
2 -79 1 -96 -4z"/>
</g>
</svg>
